<svg xmlns="http://www.w3.org/2000/svg" version="1.1" xmlns:xlink="http://www.w3.org/1999/xlink" xmlns:svgjs="http://svgjs.dev/svgjs" width="1000" height="1000" viewBox="0 0 1000 1000"><rect width="1000" height="1000" fill="#000000"></rect><g transform="matrix(0.7,0,0,0.7,149.57575839288302,459.2818915623058)"><svg viewBox="0 0 396 46" data-background-color="#ffffff" preserveAspectRatio="xMidYMid meet" height="116" width="1000" xmlns="http://www.w3.org/2000/svg" xmlns:xlink="http://www.w3.org/1999/xlink"><g id="tight-bounds" transform="matrix(1,0,0,1,0.23999958098261231,0.06690872086124955)"><svg viewBox="0 0 395.52 45.86618255827752" height="45.86618255827752" width="395.52"><g><svg viewBox="0 0 444.3467078725215 51.528335412749506" height="45.86618255827752" width="395.52"><g><rect width="3.3624301481649033" height="44.742404121056005" x="404.32217316273534" y="3.3929656458467505" fill="#ffffff" opacity="1" stroke-width="0" stroke="transparent" fill-opacity="1" class="rect-o-0" data-fill-palette-color="primary" rx="1%" id="o-0" data-palette-color="#000000"></rect></g><g transform="matrix(1,0,0,1,0,7.121499322601416)"><svg viewBox="0 0 395.52 37.285336767546674" height="37.285336767546674" width="395.52"><g id="textblocktransform"><svg viewBox="0 0 395.52 37.285336767546674" height="37.285336767546674" width="395.52" id="textblock"><g><svg viewBox="0 0 395.52 37.285336767546674" height="37.285336767546674" width="395.52"><g transform="matrix(1,0,0,1,0,0)"><svg width="395.52" viewBox="1.7000000476837158 -36.099998474121094 388.2200012207031 36.599998474121094" height="37.285336767546674" data-palette-color="#000000"><path d="M24.5-34.5Q25.55-34.35 26.15-33.85 26.75-33.35 26.75-32.2L26.75-32.2Q26.75-31.05 26.1-30.45 25.45-29.85 24.25-29.9L24.25-29.9Q20.3-30.25 16.85-30.3L16.85-30.3Q16.45-25.2 16.2-16.85L16.2-16.85Q15.9-8.75 15.9-2L15.9-2Q15.9-0.65 15.35-0.08 14.8 0.5 13.35 0.5L13.35 0.5Q11.9 0.5 11.28-0.13 10.65-0.75 10.65-2.25L10.65-2.25Q10.65-5.9 11.15-16.8L11.15-16.8Q11.5-25.25 11.85-30.25L11.85-30.25Q9.55-30.2 5.7-29.85L5.7-29.85Q5.3-29.85 4.3-29.75L4.3-29.75Q3.1-29.65 2.4-30.28 1.7-30.9 1.7-32.1L1.7-32.1Q1.7-34 3.7-34.25L3.7-34.25Q8.85-34.85 14.75-34.85L14.75-34.85Q21.55-34.85 24.5-34.5L24.5-34.5ZM60.4-18.1Q61.4-18.1 62.07-17.55 62.75-17 62.75-15.8L62.75-15.8Q62.75-14.65 62.07-14.1 61.4-13.55 60.4-13.55L60.4-13.55 59.75-13.55 60.05-2.35Q60.1-1.25 59.45-0.6 58.8 0.05 57.6 0.05L57.6 0.05Q56.45 0.05 55.77-0.55 55.1-1.15 55.05-2.2L55.05-2.2 54.7-13.65 39.5-13.9 38.5-1.5Q38.3 0.3 36 0.3L36 0.3Q33.3 0.3 33.5-1.85L33.5-1.85 34.45-14 33.7-14Q32.8-14 32.15-14.6 31.5-15.2 31.5-16.25L31.5-16.25Q31.5-17.35 32.15-17.93 32.8-18.5 33.85-18.5L33.85-18.5 34.8-18.5 36.05-33.95Q36.1-34.95 36.82-35.52 37.55-36.1 38.65-36.1L38.65-36.1Q39.95-36.1 40.55-35.4 41.15-34.7 41.05-33.6L41.05-33.6 39.85-18.4 54.55-18.2 54.1-33.7Q54.1-34.8 54.75-35.45 55.4-36.1 56.6-36.1L56.6-36.1Q57.75-36.1 58.42-35.48 59.1-34.85 59.15-33.9L59.15-33.9 59.6-18.1 60.4-18.1ZM90.44-5.4Q91.75-5.55 92.44-4.98 93.14-4.4 93.14-3.2L93.14-3.2Q93.14-1.35 91.25-0.95L91.25-0.95Q89.19-0.55 83.44-0.55L83.44-0.55 81.8-0.55Q78.64-0.55 76.07-0.68 73.5-0.8 70.09-1.2L70.09-1.2Q68.44-1.4 68.44-3.3L68.44-3.3Q68.44-4.25 68.84-4.85 69.25-5.45 70-5.5L70-5.5 70.69-5.5Q71.34-10 71.44-16.2L71.44-16.2 70.94-16.2Q69-16.2 69-18.5L69-18.5Q69-20.7 70.8-20.7L70.8-20.7 71.44-20.7 71.44-26.95 71.44-30.35Q69.94-30.75 69.94-32.4L69.94-32.4Q69.94-33.6 70.59-34.05 71.25-34.5 72.44-34.65L72.44-34.65Q75.09-34.95 81.14-34.95L81.14-34.95Q88.19-34.95 91.25-34.5L91.25-34.5Q92.25-34.35 92.84-33.9 93.44-33.45 93.44-32.4L93.44-32.4Q93.44-31.3 92.89-30.68 92.34-30.05 91.44-30.15L91.44-30.15Q86.55-30.55 82.59-30.55L82.59-30.55Q79.05-30.55 76.3-30.3L76.3-30.3 76.5-20.65 79.09-20.6Q82.5-20.6 84.89-20.45L84.89-20.45 87.84-20.4Q89.44-20.4 89.44-18.25L89.44-18.25Q89.44-17.2 89.02-16.57 88.59-15.95 87.8-15.95L87.8-15.95 85.14-16Q82.75-16.15 79.05-16.15L79.05-16.15 76.44-16.15Q76.39-10.75 75.69-5.2L75.69-5.2Q78.69-4.95 82.44-4.95L82.44-4.95Q85-4.95 86.64-5.05 88.3-5.15 90.44-5.4L90.44-5.4ZM111.09-35.1Q114.94-35.1 118.24-33.68 121.54-32.25 123.49-29.6 125.44-26.95 125.44-23.5L125.44-23.5Q125.44-20.35 123.72-17.9 121.99-15.45 118.99-14.1 115.99-12.75 112.24-12.75L112.24-12.75Q110.24-12.75 108.44-13.1 106.64-13.45 105.39-14.05L105.39-14.05 105.29-2Q105.29-0.9 104.59-0.25 103.89 0.4 102.74 0.4L102.74 0.4Q101.54 0.4 100.84-0.28 100.14-0.95 100.19-2L100.19-2Q100.19-3.75 100.29-7.75L100.29-7.75Q100.39-12.35 100.39-15.5L100.39-15.5Q100.39-20.35 100.19-26.05L100.19-26.05 100.14-27.25 99.99-27.15Q99.49-26.9 99.09-26.9L99.09-26.9Q98.34-26.9 97.89-27.65 97.44-28.4 97.44-29.45L97.44-29.45Q97.44-30.2 97.92-30.68 98.39-31.15 99.29-31.6L99.29-31.6 99.99-32 99.99-32.8Q99.99-34.1 100.64-34.73 101.29-35.35 102.64-35.35L102.64-35.35Q103.89-35.35 104.49-35.02 105.09-34.7 105.09-34.25L105.09-34.25 105.09-34.2Q108.04-35.1 111.09-35.1L111.09-35.1ZM111.39-16.9Q113.89-16.9 115.79-17.8 117.69-18.7 118.77-20.25 119.84-21.8 119.84-23.7L119.84-23.7Q119.84-25.75 118.67-27.33 117.49-28.9 115.47-29.78 113.44-30.65 111.04-30.65L111.04-30.65Q108.69-30.65 105.14-29.4L105.14-29.4Q105.24-26.3 105.24-25.5L105.24-25.5Q105.24-24.25 105.34-21.95L105.34-21.95Q105.44-19.3 105.39-18.3L105.39-18.3Q106.64-17.6 108.27-17.25 109.89-16.9 111.39-16.9L111.39-16.9ZM151.94-5.4Q153.24-5.55 153.94-4.98 154.64-4.4 154.64-3.2L154.64-3.2Q154.64-1.35 152.74-0.95L152.74-0.95Q150.69-0.55 144.94-0.55L144.94-0.55 143.29-0.55Q140.14-0.55 137.56-0.68 134.99-0.8 131.59-1.2L131.59-1.2Q129.94-1.4 129.94-3.3L129.94-3.3Q129.94-4.25 130.34-4.85 130.74-5.45 131.49-5.5L131.49-5.5 132.19-5.5Q132.84-10 132.94-16.2L132.94-16.2 132.44-16.2Q130.49-16.2 130.49-18.5L130.49-18.5Q130.49-20.7 132.29-20.7L132.29-20.7 132.94-20.7 132.94-26.95 132.94-30.35Q131.44-30.75 131.44-32.4L131.44-32.4Q131.44-33.6 132.09-34.05 132.74-34.5 133.94-34.65L133.94-34.65Q136.59-34.95 142.64-34.95L142.64-34.95Q149.69-34.95 152.74-34.5L152.74-34.5Q153.74-34.35 154.34-33.9 154.94-33.45 154.94-32.4L154.94-32.4Q154.94-31.3 154.39-30.68 153.84-30.05 152.94-30.15L152.94-30.15Q148.04-30.55 144.09-30.55L144.09-30.55Q140.54-30.55 137.79-30.3L137.79-30.3 137.99-20.65 140.59-20.6Q143.99-20.6 146.39-20.45L146.39-20.45 149.34-20.4Q150.94-20.4 150.94-18.25L150.94-18.25Q150.94-17.2 150.52-16.57 150.09-15.95 149.29-15.95L149.29-15.95 146.64-16Q144.24-16.15 140.54-16.15L140.54-16.15 137.94-16.15Q137.89-10.75 137.19-5.2L137.19-5.2Q140.19-4.95 143.94-4.95L143.94-4.95Q146.49-4.95 148.14-5.05 149.79-5.15 151.94-5.4L151.94-5.4ZM187.74-35.7Q190.24-35.7 190.24-33.05L190.24-33.05 190.19-16.45Q190.19-9.9 189.79-6.5 189.39-3.1 188.54-1.83 187.69-0.55 186.04-0.55L186.04-0.55Q184.49-0.55 182.86-1.98 181.24-3.4 179.21-6.33 177.19-9.25 173.49-15.15L173.49-15.15Q167.49-24.75 165.69-27.35L165.69-27.35 165.74-16.9 165.79-2.55Q165.79-1.7 165.09-1.07 164.39-0.45 163.29-0.45L163.29-0.45Q162.24-0.45 161.51-1.07 160.79-1.7 160.79-2.55L160.79-2.55 160.79-17.05 160.74-23.8Q160.69-26 160.69-30.1L160.69-30.1Q160.69-32.95 161.29-34.15 161.89-35.35 163.59-35.35L163.59-35.35Q165.09-35.35 166.49-34.15 167.89-32.95 169.46-30.68 171.04-28.4 174.19-23.35L174.19-23.35 175.89-20.6Q179.79-14.35 181.66-11.53 183.54-8.7 184.89-6.9L184.89-6.9Q185.19-12 185.19-16.45L185.19-16.45 185.19-33.5Q185.19-34.5 185.84-35.1 186.49-35.7 187.74-35.7L187.74-35.7ZM227.39-18.3Q229.94-18.25 229.94-16.1L229.94-16.1Q229.94-15.05 229.29-14.43 228.64-13.8 227.54-13.85L227.54-13.85 226.74-13.85Q226.39-7.2 223.09-3.6 219.79 0 213.64 0L213.64 0Q208.59 0 204.66-2.33 200.74-4.65 198.59-8.63 196.44-12.6 196.44-17.35L196.44-17.35Q196.44-22.1 198.56-26.05 200.69-30 204.44-32.27 208.19-34.55 212.84-34.55L212.84-34.55Q216.44-34.55 218.96-33.25 221.49-31.95 222.94-30.1L222.94-30.1 222.94-31.15Q222.94-32.05 223.56-32.6 224.19-33.15 225.34-33.15L225.34-33.15Q226.44-33.15 227.06-32.65 227.69-32.15 227.69-31.4L227.69-31.4Q227.79-27.65 227.09-26.35L227.09-26.35Q226.49-25.1 224.69-25.1L224.69-25.1Q223.99-25.1 223.44-25.38 222.89-25.65 222.04-26.4L222.04-26.4Q220.74-27.6 219.76-28.3 218.79-29 217.34-29.5 215.89-30 213.89-30L213.89-30Q210.24-30 207.41-28.33 204.59-26.65 203.01-23.73 201.44-20.8 201.44-17.25L201.44-17.25Q201.44-13.7 203.01-10.8 204.59-7.9 207.34-6.23 210.09-4.55 213.54-4.55L213.54-4.55Q221.34-4.55 221.94-13.9L221.94-13.9 215.54-14Q214.29-14.05 213.71-14.65 213.14-15.25 213.14-16.2L213.14-16.2Q213.14-17.35 213.84-17.98 214.54-18.6 215.64-18.55L215.64-18.55 227.39-18.3ZM246.73 0Q243.08 0 240.36-1.5 237.63-3 236.18-5.53 234.73-8.05 234.73-10.95L234.73-10.95Q234.73-13.45 237.18-13.45L237.18-13.45Q239.63-13.45 239.73-11.3L239.73-11.3Q239.78-8.1 241.83-6.3 243.88-4.5 246.73-4.5L246.73-4.5Q249.38-4.5 251.16-5.73 252.93-6.95 252.93-9.25L252.93-9.25Q252.93-11 251.93-12.13 250.93-13.25 249.36-13.95 247.78-14.65 245.28-15.4L245.28-15.4Q242.48-16.2 240.36-17.07 238.23-17.95 236.43-19.98 234.63-22 234.63-25.25L234.63-25.25Q234.63-28.2 236.18-30.5 237.73-32.8 240.38-34.1 243.03-35.4 246.13-35.4L246.13-35.4Q249.38-35.4 252.01-34 254.63-32.6 256.13-30.33 257.63-28.05 257.63-25.5L257.63-25.5Q257.63-24.2 257.03-23.63 256.43-23.05 255.23-23.05L255.23-23.05Q253.93-23.05 253.41-23.6 252.88-24.15 252.73-25.25L252.73-25.25Q252.63-27.6 250.83-29.25 249.03-30.9 246.13-30.9L246.13-30.9Q243.28-30.9 241.46-29.3 239.63-27.7 239.63-25.2L239.63-25.2Q239.63-23.6 240.58-22.63 241.53-21.65 242.98-21.08 244.43-20.5 247.53-19.55L247.53-19.55Q250.18-18.75 252.31-17.73 254.43-16.7 256.16-14.63 257.88-12.55 257.88-9.35L257.88-9.35Q257.88-6.55 256.43-4.42 254.98-2.3 252.43-1.15 249.88 0 246.73 0L246.73 0ZM285.33-34.5Q286.38-34.35 286.98-33.85 287.58-33.35 287.58-32.2L287.58-32.2Q287.58-31.05 286.93-30.45 286.28-29.85 285.08-29.9L285.08-29.9Q281.13-30.25 277.68-30.3L277.68-30.3Q277.28-25.2 277.03-16.85L277.03-16.85Q276.73-8.75 276.73-2L276.73-2Q276.73-0.65 276.18-0.08 275.63 0.5 274.18 0.5L274.18 0.5Q272.73 0.5 272.11-0.13 271.48-0.75 271.48-2.25L271.48-2.25Q271.48-5.9 271.98-16.8L271.98-16.8Q272.33-25.25 272.68-30.25L272.68-30.25Q270.38-30.2 266.53-29.85L266.53-29.85Q266.13-29.85 265.13-29.75L265.13-29.75Q263.93-29.65 263.23-30.28 262.53-30.9 262.53-32.1L262.53-32.1Q262.53-34 264.53-34.25L264.53-34.25Q269.68-34.85 275.58-34.85L275.58-34.85Q282.38-34.85 285.33-34.5L285.33-34.5ZM308.83-0.35Q304.03-0.35 300.18-2.27 296.33-4.2 294.1-7.98 291.88-11.75 291.88-17.2L291.88-17.2Q291.88-22.45 293.98-26.58 296.08-30.7 299.88-33.05 303.68-35.4 308.63-35.4L308.63-35.4Q313.68-35.4 317.75-33 321.83-30.6 324.18-26.4 326.53-22.2 326.53-16.95L326.53-16.95Q326.53-11.7 324.15-7.95 321.78-4.2 317.75-2.27 313.73-0.35 308.83-0.35L308.83-0.35ZM309.13-4.9Q312.33-4.9 315.18-6.23 318.03-7.55 319.78-10.33 321.53-13.1 321.53-17.2L321.53-17.2Q321.53-21.15 319.9-24.25 318.28-27.35 315.4-29.1 312.53-30.85 308.88-30.85L308.88-30.85Q305.28-30.85 302.55-29.15 299.83-27.45 298.33-24.4 296.83-21.35 296.83-17.45L296.83-17.45Q296.83-13.1 298.58-10.3 300.33-7.5 303.13-6.2 305.93-4.9 309.13-4.9L309.13-4.9ZM357.43-5.1Q358.07-4.7 358.4-4.28 358.73-3.85 358.73-3.2L358.73-3.2Q358.73-2.15 358.07-1.38 357.43-0.6 356.32-0.6L356.32-0.6Q355.82-0.6 355.25-0.8 354.68-1 354.28-1.25L354.28-1.25 338.93-10.85 338.93-1.95Q338.93-0.9 338.28-0.3 337.63 0.3 336.53 0.3L336.53 0.3Q335.28 0.3 334.6-0.4 333.93-1.1 333.93-2.35L333.93-2.35Q333.93-10.4 333.88-18.25L333.88-18.25 333.73-26.8 333.53-26.7Q333.23-26.6 333.07-26.6L333.07-26.6Q331.43-26.6 331.43-29.2L331.43-29.2Q331.43-30.1 332.03-30.68 332.63-31.25 333.68-31.8L333.68-31.8 333.68-32.85Q333.68-33.95 334.35-34.55 335.03-35.15 336.38-35.15L336.38-35.15Q337.38-35.15 337.93-34.83 338.48-34.5 338.48-34L338.48-34 338.48-33.8Q342.18-35.05 345.18-35.05L345.18-35.05Q349.43-35.05 352.63-33.73 355.82-32.4 357.55-29.98 359.28-27.55 359.28-24.35L359.28-24.35Q359.28-21 357.35-18.63 355.43-16.25 352.18-15.08 348.93-13.9 344.98-13.9L344.98-13.9Q343.63-13.9 342.57-14.1L342.57-14.1 357.43-5.1ZM345.38-30.5Q343.73-30.5 342.2-30.13 340.68-29.75 338.68-29L338.68-29 338.73-27.1Q338.93-22 338.93-18.55L338.93-18.55Q341.28-18 344.57-18L344.57-18Q348.82-18 351.28-19.63 353.73-21.25 353.73-24.2L353.73-24.2Q353.73-27.05 351.45-28.78 349.18-30.5 345.38-30.5L345.38-30.5ZM386.92-5.4Q388.22-5.55 388.92-4.98 389.62-4.4 389.62-3.2L389.62-3.2Q389.62-1.35 387.72-0.95L387.72-0.95Q385.67-0.55 379.92-0.55L379.92-0.55 378.27-0.55Q375.12-0.55 372.55-0.68 369.97-0.8 366.57-1.2L366.57-1.2Q364.92-1.4 364.92-3.3L364.92-3.3Q364.92-4.25 365.32-4.85 365.72-5.45 366.47-5.5L366.47-5.5 367.17-5.5Q367.82-10 367.92-16.2L367.92-16.2 367.42-16.2Q365.47-16.2 365.47-18.5L365.47-18.5Q365.47-20.7 367.27-20.7L367.27-20.7 367.92-20.7 367.92-26.95 367.92-30.35Q366.42-30.75 366.42-32.4L366.42-32.4Q366.42-33.6 367.07-34.05 367.72-34.5 368.92-34.65L368.92-34.65Q371.57-34.95 377.62-34.95L377.62-34.95Q384.67-34.95 387.72-34.5L387.72-34.5Q388.72-34.35 389.32-33.9 389.92-33.45 389.92-32.4L389.92-32.4Q389.92-31.3 389.37-30.68 388.82-30.05 387.92-30.15L387.92-30.15Q383.02-30.55 379.07-30.55L379.07-30.55Q375.52-30.55 372.77-30.3L372.77-30.3 372.97-20.65 375.57-20.6Q378.97-20.6 381.37-20.45L381.37-20.45 384.32-20.4Q385.92-20.4 385.92-18.25L385.92-18.25Q385.92-17.2 385.5-16.57 385.07-15.95 384.27-15.95L384.27-15.95 381.62-16Q379.22-16.15 375.52-16.15L375.52-16.15 372.92-16.15Q372.87-10.75 372.17-5.2L372.17-5.2Q375.17-4.95 378.92-4.95L378.92-4.95Q381.47-4.95 383.12-5.05 384.77-5.15 386.92-5.4L386.92-5.4Z" opacity="1" transform="matrix(1,0,0,1,0,0)" fill="#ffffff" class="wordmark-text-0" data-fill-palette-color="primary" id="text-0"></path></svg></g></svg></g></svg></g></svg></g><g transform="matrix(1,0,0,1,416.4867764736356,0)"><svg viewBox="0 0 27.859931398885934 51.528335412749506" height="51.528335412749506" width="27.859931398885934"><g><svg xmlns="http://www.w3.org/2000/svg" xmlns:xlink="http://www.w3.org/1999/xlink" version="1.1" x="0" y="0" viewBox="27.96698570251465 5 54.06732177734375 100.00021362304688" enable-background="new 0 0 110 110" xml:space="preserve" height="51.528335412749506" width="27.859931398885934" class="icon-icon-0" data-fill-palette-color="accent" id="icon-0"><path d="M47.982 18.062c-0.524-0.775-0.872-1.586-0.726-1.929 0.017-0.033 0.041-0.058 0.071-0.072 0.753 0.19 2.448 1.711 2.222 2.028-0.052 0.078-0.403 0.133-0.781 0.146-0.019 0.003-0.036 0.003-0.055 0C48.382 18.225 48.079 18.172 47.982 18.062z" fill="#ffffff" data-fill-palette-color="accent"></path><path d="M62.786 16.132c0.146 0.342-0.198 1.155-0.724 1.931-0.097 0.111-0.4 0.163-0.732 0.174-0.02 0.003-0.039 0-0.055 0-0.379-0.014-0.73-0.069-0.782-0.146-0.227-0.318 1.47-1.84 2.224-2.03C62.748 16.074 62.772 16.099 62.786 16.132z" fill="#ffffff" data-fill-palette-color="accent"></path><path d="M80.774 53.568c0.802 2.787 2.617 13.792-0.488 15.088-1.507 0.464-1.83-5.258-3.42-9.672-0.723-2.008-3.205-9.416-5.481-9.416 3.933 10.961 5.254 20.23 5.254 27.741 0 10.546-3.236 15.211-5.985 17.138-0.913 0.64-1.804 1.114-2.675 1.458 0.516 0.936 1.536 1.202 3.012 1.708 1.971 0.675 5.174 2.143 4.412 2.975-0.824 0.898-4.971-0.381-5.045 0.286-0.074 0.666 2.156 2.943 1.605 3.827-0.635 1.021-2.953-0.902-2.953-0.902-0.971-0.791-2.061-1.549-2.832-1.723-2.125-0.476-3.09 0.776-4.158 0.209-0.77-0.867 1.199-2.03 1.305-3.958 0.029-0.525-0.002-1.087-0.062-1.621-2.478-0.037-4.881-0.638-7.347-0.795h-1.832c-2.48 0.159-4.894 0.764-7.391 0.797-0.058 0.534-0.089 1.094-0.06 1.619 0.106 1.928 2.075 3.091 1.305 3.958-1.068 0.567-2.033-0.685-4.157-0.209-0.772 0.174-1.861 0.932-2.832 1.723 0 0-2.319 1.924-2.955 0.902-0.55-0.884 1.681-3.161 1.607-3.827-0.075-0.667-4.222 0.612-5.045-0.286-0.762-0.832 2.441-2.3 4.412-2.975 1.482-0.51 2.507-0.774 3.019-1.723-0.861-0.342-1.739-0.812-2.64-1.443-2.747-1.927-5.985-6.592-5.985-17.138 0-7.511 1.323-16.78 5.256-27.741-2.277 0-4.762 7.408-5.484 9.416-1.588 4.414-1.762 10.239-3.418 9.672-3.105-1.296-1.292-12.301-0.489-15.088 2.876-9.997 7.693-14.316 10.712-18.711 2.656-3.872 6.488-9.633 4.31-13.239-0.828-1.466-1.091-3.157-0.967-4.364 0.205-2.027 1.004-4.323 1.812-6.146C46.082 8.87 48.425 5.414 53.29 5h3.462c4.865 0.414 7.206 3.87 8.195 6.107 0.808 1.824 1.609 4.12 1.814 6.146 0.123 1.207-0.139 2.898-0.967 4.364-2.179 3.606 1.654 9.368 4.31 13.239l-0.026 0.019C73.094 39.265 77.901 43.585 80.774 53.568zM68.562 90.789c8.076-7.901 1.908-30.877-0.283-39.163C65.66 41.739 62.66 34.514 55 34.108c-7.66 0.406-10.66 7.631-13.278 17.519-2.193 8.286-8.362 31.261-0.286 39.163 3.611 3.532 8.18 1.05 12.588 0.99h0.145 1.662 0.145C60.383 91.839 64.951 94.321 68.562 90.789zM56.686 18.566c0.396-0.107-0.271-1.194-1.412-1.292h-0.039-0.427-0.04c-1.141 0.097-1.809 1.184-1.411 1.292 0.509 0.141 0.962 0.776 1.099 1.551 0.059 0.329 0.187 0.677 0.375 0.917 0 0 0.043 0.064 0.166 0.064 0.008 0 0.019 0 0.024 0 0.007 0 0.017 0 0.024 0 0.123 0 0.166-0.064 0.166-0.064 0.188-0.24 0.316-0.588 0.375-0.917C55.723 19.343 56.176 18.708 56.686 18.566zM55.236 25.956c6.352 0.12 11.088-4.445 9.881-10.19-0.327-1.557-0.939-4.59-2.691-4.451-0.869 0.068-1.912 1.035-2.708 2.164-0.747 1.058-1.411 3.799-0.993 5.128 0.148 0.472 1.068 0.762 0.902 1.464-0.369 1.561-1.66 2.339-3.977 2.432h-1.316c-2.317-0.093-3.609-0.872-3.978-2.432-0.166-0.702 0.753-0.992 0.903-1.464 0.418-1.329-0.247-4.07-0.994-5.128-0.795-1.128-1.839-2.095-2.708-2.164-1.751-0.139-2.364 2.894-2.691 4.451-1.207 5.745 3.53 10.31 9.882 10.19H55.236z" fill="#ffffff" data-fill-palette-color="accent"></path></svg></g></svg></g></svg></g><defs></defs></svg><rect width="395.52" height="45.86618255827752" fill="none" stroke="none" visibility="hidden"></rect></g></svg></g></svg>